# xmcd CD database file
#
# Track frame offsets:
#	150
#	19875
#	40835
#
# Disc length: 793 seconds
#
# Revision: 0
# Processed by: cddbd v1.5.1PL0 Copyright (c) Steve Scherf et al.
# Submitted via: CDex 1.51
#
DISCID=1c031703
DTITLE=つばき - 青
DYEAR=2004
DGENRE=Rock
TTITLE0=青
TTITLE1=茜色
TTITLE2=カーテン
EXTD=YEAR: 2004
EXTT0=
EXTT1=
EXTT2=
PLAYORDER=
